<svg
                width="24"
                height="24"
                viewBox="0 0 24 24"
                fill="none"
                xmlns="http://www.w3.org/2000/svg"
              >
                <path
                  fill-rule="evenodd"
                  clip-rule="evenodd"
                  d="M12 3C7.58172 3 4 4.34315 4 6V18C4 19.6569 7.58172 21 12 21C16.4183 21 20 19.6569 20 18V6C20 4.34315 16.4183 3 12 3ZM5.5 6.5C6.26962 7.38024 8.90076 8 12 8C15.0992 8 17.7304 7.38024 18.5 6.5C18.5 5.67157 15.5899 4.5 12 4.5C8.41015 4.5 5.5 5.67157 5.5 6.5ZM5.5 8.5V11C5.5 11.8284 8.41015 13 12 13C15.5899 13 18.5 11.8284 18.5 11V8.5C17.7304 9.38024 15.0992 10 12 10C8.90076 10 6.26962 9.38024 5.5 8.5ZM5.5 13.5V16C5.5 16.8284 8.41015 18 12 18C15.5899 18 18.5 16.8284 18.5 16V13.5C17.7304 14.3802 15.0992 15 12 15C8.90076 15 6.26962 14.3802 5.5 13.5Z"
                  fill="currentColor"
                />
              </svg>
