<svg
  width="24"
  height="24"
  viewBox="0 0 24 24"
  fill="none"
  xmlns="http://www.w3.org/2000/svg"
>
  <path
    fillRule="evenodd"
    clipRule="evenodd"
    d="M10.15 3.5C10.15 2.94772 10.5977 2.5 11.15 2.5H12.85C13.4023 2.5 13.85 2.94772 13.85 3.5V4.183C14.4378 4.33854 14.9978 4.58857 15.509 4.923L15.989 4.443C16.3812 4.05076 17.016 4.05076 17.4082 4.443L18.557 5.5918C18.9492 5.98405 18.9492 6.61881 18.557 7.011L18.077 7.491C18.4114 8.0022 18.6615 8.5622 18.817 9.15H19.5C20.0523 9.15 20.5 9.59772 20.5 10.15V11.85C20.5 12.4023 20.0523 12.85 19.5 12.85H18.817C18.6615 13.4378 18.4114 13.9978 18.077 14.509L18.557 14.989C18.9492 15.3812 18.9492 16.016 18.557 16.4082L17.4082 17.557C17.016 17.9492 16.3812 17.9492 15.989 17.557L15.509 17.077C14.9978 17.4114 14.4378 17.6615 13.85 17.817V18.5C13.85 19.0523 13.4023 19.5 12.85 19.5H11.15C10.5977 19.5 10.15 19.0523 10.15 18.5V17.817C9.5622 17.6615 9.0022 17.4114 8.491 17.077L8.011 17.557C7.61881 17.9492 6.98405 17.9492 6.5918 17.557L5.443 16.4082C5.05076 16.016 5.05076 15.3812 5.443 14.989L5.923 14.509C5.58857 13.9978 5.33854 13.4378 5.183 12.85H4.5C3.94772 12.85 3.5 12.4023 3.5 11.85V10.15C3.5 9.59772 3.94772 9.15 4.5 9.15H5.183C5.33854 8.5622 5.58857 8.0022 5.923 7.491L5.443 7.011C5.05076 6.61881 5.05076 5.98405 5.443 5.5918L6.5918 4.443C6.98405 4.05076 7.61881 4.05076 8.011 4.443L8.491 4.923C9.0022 4.58857 9.5622 4.33854 10.15 4.183V3.5ZM12 15.25C13.7949 15.25 15.25 13.7949 15.25 12C15.25 10.2051 13.7949 8.75 12 8.75C10.2051 8.75 8.75 10.2051 8.75 12C8.75 13.7949 10.2051 15.25 12 15.25Z"
    fill="currentColor"
  />
</svg>
